<svg xmlns="http://www.w3.org/2000/svg" version="1.1" xmlns:xlink="http://www.w3.org/1999/xlink" xmlns:svgjs="http://svgjs.dev/svgjs" width="1500" height="1500" viewBox="0 0 1500 1500"><rect width="1500" height="1500" fill="#000000"></rect><g transform="matrix(0.6666666666666666,0,0,0.6666666666666666,249.39401559295294,616.7159818101526)"><svg viewBox="0 0 396 106" data-background-color="#3aafa9" preserveAspectRatio="xMidYMid meet" height="401" width="1500" xmlns="http://www.w3.org/2000/svg" xmlns:xlink="http://www.w3.org/1999/xlink"><g id="tight-bounds" transform="matrix(1,0,0,1,0.23996982519065568,-0.15172346088343147)"><svg viewBox="0 0 395.52 106.30344692176688" height="106.30344692176688" width="395.52"><g><svg viewBox="0 0 524.3048866579622 140.91680999612583" height="106.30344692176688" width="395.52"><g transform="matrix(1,0,0,1,128.78488665796223,22.056892103022548)"><svg viewBox="0 0 395.52 96.80302579008074" height="96.80302579008074" width="395.52"><g id="textblocktransform"><svg viewBox="0 0 395.52 96.80302579008074" height="96.80302579008074" width="395.52" id="textblock"><g><svg viewBox="0 0 395.52 96.80302579008074" height="96.80302579008074" width="395.52"><path d="M394.594 20.762C392.735 10.714 387.435 7.921 387.435 7.921 371.165-2.429 350.86-0.198 332.619 1.289 300.414 1.349 268.339 3.56 236.208 4.746 168.767 4.927 100.749 1.952 33.643 9.287 27.339 11.538-6.54 9.73 1.121 22.049 3.129 27.173 10.456 32.86 10.232 37.563 11.236 38.387 12.631 36.498 13.226 37.683 15.309 40.879 18.711 39.372 21.501 41.261 17.614 46.305 20.403 50.505 23.062 54.906 18.377 56.051 12.371 55.509 9.675 59.307 9.396 62.06 7.89 61.538 6.235 61.417 5.026 61.337 2.59 61.638 2.999 62.502 4.394 65.456-1.594 67.165 2.162 70.058-0.422 73.193 3.948 75.906 3.353 79.303 3.278 79.986 3.687 80.569 4.338 80.73 7.22 81.594 3.018 83.282 3.464 85.111 33.029 97.61 65.104 88.969 95.394 94.717 103.259 90.697 97.346 96.143 100.489 95.299 102.943 94.315 104.728 98.394 107.499 96.083 107.927 95.42 107.276 93.852 108.8 94.154 109.6 94.315 110.307 94.274 110.418 93.35 110.586 91.963 109.117 92.828 108.726 92.104 112.947 88.447 111.906 97.148 115.866 96.786 115.68 95.721 114.528 94.194 116.889 94.395 119.232 92.868 119.306 91.602 121.389 95.038 121.463 95.782 121.835 96.304 122.43 96.666 128.938 92.928 135.409 97.992 142.233 96.304 146.417 94.455 150.433 97.309 154.672 96.606 156.16 96.043 157.666 95.038 159.098 96.726 176.632 97.088 195.319 95.581 211.943 96.786 256.364 94.536 303.836 97.711 350.674 94.737 361.719 93.591 373.192 91.963 383.958 90.657 383.958 90.657 392.679 87.08 392.679 71.003S394.538 56.936 394.817 44.134C395.096 31.333 396.398 30.811 394.538 20.762Z" opacity="1" fill="#ffffff" data-fill-palette-color="tertiary"></path><g transform="matrix(1,0,0,1,55.76832,26.23066666666667)"><svg width="283.98335999999995" viewBox="2.25 -35.3 231.18 36.099999999999994" height="44.341692456747396" data-palette-color="#3aafa9"><path d="M6.8-8.9L2.25-8.9 2.25-16.35 6.8-16.35 6.8-8.9ZM6.8-16.3L2.25-16.3Q2.25-19.1 3.48-21.3 4.7-23.5 6.78-24.78 8.85-26.05 11.5-26.05L11.5-26.05 11.5-22.1Q9.3-22.1 8.05-20.6 6.8-19.1 6.8-16.3L6.8-16.3ZM20.4-18.6L16.15-17.75Q15.9-20 14.58-21.05 13.25-22.1 11.45-22.1L11.45-22.1 11.45-26.05Q13.8-26.05 15.7-25.1 17.6-24.15 18.85-22.48 20.1-20.8 20.4-18.6L20.4-18.6ZM2.25-8.95L2.25-8.95 6.8-8.95Q6.8-6.2 8.05-4.67 9.3-3.15 11.5-3.15L11.5-3.15 11.5 0.8Q8.85 0.8 6.78-0.48 4.7-1.75 3.48-3.95 2.25-6.15 2.25-8.95ZM16.15-7.5L16.15-7.5 20.4-6.65Q20.1-4.5 18.85-2.8 17.6-1.1 15.7-0.15 13.8 0.8 11.45 0.8L11.45 0.8 11.45-3.15Q13.25-3.15 14.58-4.23 15.9-5.3 16.15-7.5ZM37.75-25.25L42.3-25.25 42.3 0 37.75 0 37.75-25.25ZM23.7-25.25L28.25-25.25 28.25-8.05 23.7-8.05 23.7-25.25ZM23.7-8.05L28.25-8.05Q28.25-5.95 29.57-4.63 30.9-3.3 32.95-3.3L32.95-3.3 31.8 0.75Q29.45 0.75 27.62-0.4 25.8-1.55 24.75-3.55 23.7-5.55 23.7-8.05L23.7-8.05ZM37.75-8.2L39.75-8.2Q39.75-5.65 38.72-3.63 37.7-1.6 35.87-0.43 34.05 0.75 31.8 0.75L31.8 0.75 32.95-3.3Q35.05-3.3 36.4-4.65 37.75-6 37.75-8.2L37.75-8.2ZM52.84 0L48.3 0 48.3-25.25 52.84-25.25 52.84 0ZM52.84-16.9L50.8-16.9Q50.8-19.45 51.65-21.48 52.5-23.5 53.97-24.65 55.45-25.8 57.25-25.8L57.25-25.8 56.84-21.55Q55.09-21.55 53.97-20.23 52.84-18.9 52.84-16.9L52.84-16.9ZM61.4-24.2L59.84-20.4Q59.25-20.9 58.42-21.23 57.59-21.55 56.84-21.55L56.84-21.55 57.25-25.8Q58.4-25.8 59.5-25.38 60.59-24.95 61.4-24.2L61.4-24.2ZM80.79-11.25L63.74-11.25 63.74-14.5 80.79-14.5 80.79-11.25ZM71.74 0.8L71.49 0.8 71.49-3.15 71.74-3.15 71.74 0.8ZM66.84-8.95L62.29-8.95 62.29-16.3 66.84-16.3 66.84-8.95ZM80.79-14.5L76.24-14.5 76.24-17.1 80.79-17.1 80.79-14.5ZM80.79-17.1L80.79-17.1 76.24-17.1Q76.24-19.3 74.92-20.7 73.59-22.1 71.49-22.1L71.49-22.1 71.49-26Q74.19-26 76.27-24.85 78.34-23.7 79.57-21.68 80.79-19.65 80.79-17.1ZM76.44-7.5L76.44-7.5 80.69-6.65Q80.39-4.5 79.14-2.8 77.89-1.1 75.99-0.15 74.09 0.8 71.74 0.8L71.74 0.8 71.74-3.15Q73.54-3.15 74.87-4.23 76.19-5.3 76.44-7.5ZM66.84-16.25L62.29-16.25Q62.29-19.1 63.52-21.28 64.74-23.45 66.82-24.73 68.89-26 71.54-26L71.54-26 71.54-22.1Q69.34-22.1 68.09-20.58 66.84-19.05 66.84-16.25L66.84-16.25ZM62.29-8.95L62.29-8.95 66.84-8.95Q66.84-6.2 68.09-4.67 69.34-3.15 71.54-3.15L71.54-3.15 71.54 0.8Q68.89 0.8 66.82-0.48 64.74-1.75 63.52-3.95 62.29-6.15 62.29-8.95ZM89.24-8.9L84.69-8.9 84.69-16.35 89.24-16.35 89.24-8.9ZM89.24-16.3L84.69-16.3Q84.69-19.1 85.92-21.3 87.14-23.5 89.22-24.78 91.29-26.05 93.94-26.05L93.94-26.05 93.94-22.1Q91.74-22.1 90.49-20.6 89.24-19.1 89.24-16.3L89.24-16.3ZM102.84-18.6L98.59-17.75Q98.34-20 97.02-21.05 95.69-22.1 93.89-22.1L93.89-22.1 93.89-26.05Q96.24-26.05 98.14-25.1 100.04-24.15 101.29-22.48 102.54-20.8 102.84-18.6L102.84-18.6ZM84.69-8.95L84.69-8.95 89.24-8.95Q89.24-6.2 90.49-4.67 91.74-3.15 93.94-3.15L93.94-3.15 93.94 0.8Q91.29 0.8 89.22-0.48 87.14-1.75 85.92-3.95 84.69-6.15 84.69-8.95ZM98.59-7.5L98.59-7.5 102.84-6.65Q102.54-4.5 101.29-2.8 100.04-1.1 98.14-0.15 96.24 0.8 93.89 0.8L93.89 0.8 93.89-3.15Q95.69-3.15 97.02-4.23 98.34-5.3 98.59-7.5ZM124.24-8.95L119.69-8.95 119.69-16.3 124.24-16.3 124.24-8.95ZM110.19-8.95L105.64-8.95 105.64-16.3 110.19-16.3 110.19-8.95ZM115.09-22.05L114.79-22.05 114.79-26 115.09-26 115.09-22.05ZM115.09 0.75L114.79 0.75 114.79-3.2 115.09-3.2 115.09 0.75ZM110.19-16.25L105.64-16.25Q105.64-19.05 106.86-21.25 108.09-23.45 110.16-24.73 112.24-26 114.89-26L114.89-26 114.89-22.05Q112.69-22.05 111.44-20.55 110.19-19.05 110.19-16.25L110.19-16.25ZM124.24-16.25L124.24-16.25 119.69-16.25Q119.69-19.05 118.46-20.55 117.24-22.05 114.99-22.05L114.99-22.05 114.99-26Q117.64-26 119.71-24.73 121.79-23.45 123.01-21.25 124.24-19.05 124.24-16.25ZM105.64-9L105.64-9 110.19-9Q110.19-6.25 111.44-4.73 112.69-3.2 114.89-3.2L114.89-3.2 114.89 0.75Q112.24 0.75 110.16-0.53 108.09-1.8 106.86-4 105.64-6.2 105.64-9ZM119.69-9L124.24-9Q124.24-6.2 123.01-4 121.79-1.8 119.71-0.53 117.64 0.75 114.99 0.75L114.99 0.75 114.99-3.2Q117.24-3.2 118.46-4.73 119.69-6.25 119.69-9L119.69-9ZM133.44 0L128.89 0 128.89-25.25 133.44-25.25 133.44 0ZM147.49 0L142.94 0 142.94-17.2 147.49-17.2 147.49 0ZM147.49-17.2L142.94-17.2Q142.94-19.3 141.64-20.63 140.34-21.95 138.29-21.95L138.29-21.95 139.44-26Q141.74-26 143.56-24.85 145.39-23.7 146.44-21.7 147.49-19.7 147.49-17.2L147.49-17.2ZM133.44-17.1L131.44-17.1Q131.44-19.65 132.49-21.68 133.54-23.7 135.34-24.85 137.14-26 139.44-26L139.44-26 138.29-21.95Q136.14-21.95 134.79-20.6 133.44-19.25 133.44-17.1L133.44-17.1ZM157.18 0L152.63 0 152.63-25.25 157.18-25.25 157.18 0ZM171.23 0L166.68 0 166.68-17.2 171.23-17.2 171.23 0ZM171.23-17.2L166.68-17.2Q166.68-19.3 165.38-20.63 164.08-21.95 162.03-21.95L162.03-21.95 163.18-26Q165.48-26 167.31-24.85 169.13-23.7 170.18-21.7 171.23-19.7 171.23-17.2L171.23-17.2ZM157.18-17.1L155.18-17.1Q155.18-19.65 156.23-21.68 157.28-23.7 159.08-24.85 160.88-26 163.18-26L163.18-26 162.03-21.95Q159.88-21.95 158.53-20.6 157.18-19.25 157.18-17.1L157.18-17.1ZM193.63-11.25L176.58-11.25 176.58-14.5 193.63-14.5 193.63-11.25ZM184.58 0.8L184.33 0.8 184.33-3.15 184.58-3.15 184.58 0.8ZM179.68-8.95L175.13-8.95 175.13-16.3 179.68-16.3 179.68-8.95ZM193.63-14.5L189.08-14.5 189.08-17.1 193.63-17.1 193.63-14.5ZM193.63-17.1L193.63-17.1 189.08-17.1Q189.08-19.3 187.76-20.7 186.43-22.1 184.33-22.1L184.33-22.1 184.33-26Q187.03-26 189.11-24.85 191.18-23.7 192.41-21.68 193.63-19.65 193.63-17.1ZM189.28-7.5L189.28-7.5 193.53-6.65Q193.23-4.5 191.98-2.8 190.73-1.1 188.83-0.15 186.93 0.8 184.58 0.8L184.58 0.8 184.58-3.15Q186.38-3.15 187.71-4.23 189.03-5.3 189.28-7.5ZM179.68-16.25L175.13-16.25Q175.13-19.1 176.36-21.28 177.58-23.45 179.66-24.73 181.73-26 184.38-26L184.38-26 184.38-22.1Q182.18-22.1 180.93-20.58 179.68-19.05 179.68-16.25L179.68-16.25ZM175.13-8.95L175.13-8.95 179.68-8.95Q179.68-6.2 180.93-4.67 182.18-3.15 184.38-3.15L184.38-3.15 184.38 0.8Q181.73 0.8 179.66-0.48 177.58-1.75 176.36-3.95 175.13-6.15 175.13-8.95ZM202.08-8.9L197.53-8.9 197.53-16.35 202.08-16.35 202.08-8.9ZM202.08-16.3L197.53-16.3Q197.53-19.1 198.75-21.3 199.98-23.5 202.05-24.78 204.13-26.05 206.78-26.05L206.78-26.05 206.78-22.1Q204.58-22.1 203.33-20.6 202.08-19.1 202.08-16.3L202.08-16.3ZM215.68-18.6L211.43-17.75Q211.18-20 209.85-21.05 208.53-22.1 206.73-22.1L206.73-22.1 206.73-26.05Q209.08-26.05 210.98-25.1 212.88-24.15 214.13-22.48 215.38-20.8 215.68-18.6L215.68-18.6ZM197.53-8.95L197.53-8.95 202.08-8.95Q202.08-6.2 203.33-4.67 204.58-3.15 206.78-3.15L206.78-3.15 206.78 0.8Q204.13 0.8 202.05-0.48 199.98-1.75 198.75-3.95 197.53-6.15 197.53-8.95ZM211.43-7.5L211.43-7.5 215.68-6.65Q215.38-4.5 214.13-2.8 212.88-1.1 210.98-0.15 209.08 0.8 206.73 0.8L206.73 0.8 206.73-3.15Q208.53-3.15 209.85-4.23 211.18-5.3 211.43-7.5ZM225.93-7.65L221.38-7.65 221.38-35.3 225.93-35.25 225.93-7.65ZM232.23-21.5L218.48-21.5 218.48-25.25 232.23-25.25 232.23-21.5ZM221.38-7.7L221.38-7.7 225.93-7.7Q225.93-6.25 226.33-5.25 226.73-4.25 227.48-3.73 228.23-3.2 229.28-3.2L229.28-3.2 228.88 0.75Q225.38 0.75 223.38-1.48 221.38-3.7 221.38-7.7ZM231.63-4.05L231.63-4.05 233.43-0.8Q232.43-0.05 231.25 0.35 230.08 0.75 228.88 0.75L228.88 0.75 229.28-3.2Q229.93-3.2 230.5-3.43 231.08-3.65 231.63-4.05Z" opacity="1" transform="matrix(1,0,0,1,0,0)" fill="#000000" class="wordmark-text-0" data-fill-palette-color="quaternary" id="text-0"></path></svg></g></svg></g></svg></g></svg></g><g><svg viewBox="0 0 118.31687726954313 140.91680999612583" height="140.91680999612583" width="118.31687726954313"><g><svg xmlns="http://www.w3.org/2000/svg" xmlns:xlink="http://www.w3.org/1999/xlink" version="1.1" x="0" y="0" viewBox="0 0 99.999 119.1" enable-background="new 0 0 100 119.1" xml:space="preserve" width="118.31687726954313" height="140.91680999612583" class="icon-icon-0" data-fill-palette-color="accent" id="icon-0"><path fill="#ffffff" d="M72.527 57.638c4.218 4.265 7.231 9.719 8.493 15.818 3.819 0.318 6.821 3.516 6.821 7.416 0 4.114-3.336 7.45-7.448 7.45-4.115 0-7.45-3.336-7.45-7.45 0-3.473 2.381-6.381 5.597-7.204-1.654-7.727-6.304-14.458-12.657-18.747 4.947-5.918 8.32-14.542 9.055-24.328 0.19-1.317 0.29-2.666 0.29-4.039 0-1.374-0.1-2.722-0.29-4.04C73.088 9.766 62.626 0 50 0 37.368 0 26.906 9.771 25.062 22.524c-0.19 1.314-0.289 2.659-0.289 4.03 0 0.556 0.021 1.107 0.053 1.655 0.047 0.801 0.124 1.594 0.236 2.374 0.018 0.238 0.038 0.476 0.059 0.712 0.838 9.477 4.156 17.816 8.97 23.591-1.107 0.369-2.198 0.773-3.268 1.216-6.216 5.013-9.712 12.852-10.001 22.493 6.311 0.552 11.318 8.354 11.318 17.929l-2.334 1.983c0.197 0.305 0.314 0.666 0.314 1.058 0 1.074-0.871 1.943-1.945 1.943-1.072 0-1.943-0.869-1.943-1.943s0.871-1.944 1.943-1.944c0.375 0 0.723 0.111 1.021 0.297l2.005-1.394c0-9.156-4.966-16.579-11.092-16.579-6.124 0-11.089 7.423-11.089 16.579l1.836 1.273c0.244-0.111 0.516-0.177 0.803-0.177 1.074 0 1.945 0.869 1.945 1.942 0 1.075-0.871 1.944-1.945 1.944s-1.945-0.869-1.945-1.944c0-0.48 0.182-0.914 0.471-1.253l-2.102-1.788c0-9.037 4.462-16.494 10.27-17.77 0.292-8.227 2.717-15.653 8.125-21.121C11.451 65.18 1.73 80.038 0 97.546 9.945 112.917 28.611 119.1 50 119.1c21.386 0 40.054-6.183 49.999-21.554C98.269 80.04 87.551 65.186 72.527 57.638zM34.439 16.266c0 0 17.433 8.478 29.156 0 0 0 6.958 11.008 5.005 15.334l3.54-4.067c-0.015 1.081-0.097 2.144-0.248 3.184C70.684 46.816 61.344 59.344 50 59.344c-11.16 0-20.381-12.125-21.828-27.848 0.982 0.247 2.187 0.724 3.499 1.64C31.67 33.136 29.178 18.342 34.439 16.266zM49.523 75.981L35.452 56.404c4.104 4.275 9.123 6.798 14.548 6.798 5.062 0 9.77-2.197 13.711-5.963L49.523 75.981zM70.413 98.647h-4.986v4.985h-4.249v-4.985h-4.984v-4.248h4.984v-4.986h4.249v4.986h4.986V98.647z" data-fill-palette-color="accent"></path><path fill="#ffffff" d="M80.393 85.767c2.703 0 4.893-2.19 4.893-4.896 0-2.341-1.647-4.29-3.844-4.772-0.341-0.073-0.689-0.118-1.049-0.118-0.501 0-0.973 0.097-1.427 0.235-2.002 0.613-3.469 2.453-3.469 4.655C75.498 83.576 77.69 85.767 80.393 85.767z" data-fill-palette-color="accent"></path></svg></g></svg></g></svg></g><defs></defs></svg><rect width="395.52" height="106.30344692176688" fill="none" stroke="none" visibility="hidden"></rect></g></svg></g></svg>