<svg xmlns="http://www.w3.org/2000/svg" version="1.1" xmlns:xlink="http://www.w3.org/1999/xlink" xmlns:svgjs="http://svgjs.dev/svgjs" width="1500" height="1500" viewBox="0 0 1500 1500"><g transform="matrix(1,0,0,1,0,0)"><svg viewBox="0 0 280 280" data-background-color="#fff9f0" preserveAspectRatio="xMidYMid meet" height="1500" width="1500" xmlns="http://www.w3.org/2000/svg" xmlns:xlink="http://www.w3.org/1999/xlink"><g id="tight-bounds" transform="matrix(1,0,0,1,0,0)"><svg viewBox="0 0 280 280" height="280" width="280"><g><svg viewBox="0 0 280 280" height="280" width="280"><g><svg viewBox="0 0 280 280" height="280" width="280"><g id="textblocktransform"><svg viewBox="0 0 280 280" height="280" width="280" id="textblock"><g><svg viewBox="0 0 280 280" height="280" width="280"><g transform="matrix(1,0,0,1,84.58776411048251,74.00336708925556)"><svg viewBox="0 0 110.82447177903498 131.99326582148888" height="131.99326582148888" width="110.82447177903498"><g id="icon-0"><svg xmlns="http://www.w3.org/2000/svg" xmlns:xlink="http://www.w3.org/1999/xlink" version="1.1" x="0" y="0" viewBox="0 0 99.999 119.1" enable-background="new 0 0 100 119.1" xml:space="preserve" width="110.82447177903498" height="131.99326582148888" class="icon-xg-0" data-fill-palette-color="accent" id="xg-0"><path fill="#3aafa9" d="M72.527 57.638c4.218 4.265 7.231 9.719 8.493 15.818 3.819 0.318 6.821 3.516 6.821 7.416 0 4.114-3.336 7.45-7.448 7.45-4.115 0-7.45-3.336-7.45-7.45 0-3.473 2.381-6.381 5.597-7.204-1.654-7.727-6.304-14.458-12.657-18.747 4.947-5.918 8.32-14.542 9.055-24.328 0.19-1.317 0.29-2.666 0.29-4.039 0-1.374-0.1-2.722-0.29-4.04C73.088 9.766 62.626 0 50 0 37.368 0 26.906 9.771 25.062 22.524c-0.19 1.314-0.289 2.659-0.289 4.03 0 0.556 0.021 1.107 0.053 1.655 0.047 0.801 0.124 1.594 0.236 2.374 0.018 0.238 0.038 0.476 0.059 0.712 0.838 9.477 4.156 17.816 8.97 23.591-1.107 0.369-2.198 0.773-3.268 1.216-6.216 5.013-9.712 12.852-10.001 22.493 6.311 0.552 11.318 8.354 11.318 17.929l-2.334 1.983c0.197 0.305 0.314 0.666 0.314 1.058 0 1.074-0.871 1.943-1.945 1.943-1.072 0-1.943-0.869-1.943-1.943s0.871-1.944 1.943-1.944c0.375 0 0.723 0.111 1.021 0.297l2.005-1.394c0-9.156-4.966-16.579-11.092-16.579-6.124 0-11.089 7.423-11.089 16.579l1.836 1.273c0.244-0.111 0.516-0.177 0.803-0.177 1.074 0 1.945 0.869 1.945 1.942 0 1.075-0.871 1.944-1.945 1.944s-1.945-0.869-1.945-1.944c0-0.48 0.182-0.914 0.471-1.253l-2.102-1.788c0-9.037 4.462-16.494 10.27-17.77 0.292-8.227 2.717-15.653 8.125-21.121C11.451 65.18 1.73 80.038 0 97.546 9.945 112.917 28.611 119.1 50 119.1c21.386 0 40.054-6.183 49.999-21.554C98.269 80.04 87.551 65.186 72.527 57.638zM34.439 16.266c0 0 17.433 8.478 29.156 0 0 0 6.958 11.008 5.005 15.334l3.54-4.067c-0.015 1.081-0.097 2.144-0.248 3.184C70.684 46.816 61.344 59.344 50 59.344c-11.16 0-20.381-12.125-21.828-27.848 0.982 0.247 2.187 0.724 3.499 1.64C31.67 33.136 29.178 18.342 34.439 16.266zM49.523 75.981L35.452 56.404c4.104 4.275 9.123 6.798 14.548 6.798 5.062 0 9.77-2.197 13.711-5.963L49.523 75.981zM70.413 98.647h-4.986v4.985h-4.249v-4.985h-4.984v-4.248h4.984v-4.986h4.249v4.986h4.986V98.647z" data-fill-palette-color="accent"></path><path fill="#3aafa9" d="M80.393 85.767c2.703 0 4.893-2.19 4.893-4.896 0-2.341-1.647-4.29-3.844-4.772-0.341-0.073-0.689-0.118-1.049-0.118-0.501 0-0.973 0.097-1.427 0.235-2.002 0.613-3.469 2.453-3.469 4.655C75.498 83.576 77.69 85.767 80.393 85.767z" data-fill-palette-color="accent"></path></svg></g></svg></g><g id="text-0"><path d="M20.182 102.242l-1.138 3.504-5.746-1.866 1.137-3.504zM14.474 100.388l-1.137 3.505c-1.437-0.466-2.619-1.197-3.548-2.193-0.929-0.995-1.546-2.133-1.854-3.413-0.307-1.28-0.24-2.6 0.202-3.959v0l3.048 0.99c-0.366 1.126-0.268 2.138 0.291 3.035 0.562 0.891 1.561 1.569 2.998 2.035zM16.112 89.331l-0.412 3.482c-1.2-0.247-2.179-0.117-2.938 0.388-0.76 0.512-1.289 1.227-1.587 2.146v0l-3.048-0.99c0.391-1.204 0.988-2.215 1.79-3.035 0.809-0.818 1.748-1.407 2.817-1.768 1.071-0.368 2.197-0.442 3.378-0.223zM19.006 105.733v0l1.137-3.504c1.417 0.46 2.621 0.497 3.613 0.11 0.993-0.393 1.673-1.152 2.038-2.278v0l3.048 0.99c-0.441 1.359-1.165 2.465-2.172 3.318-1 0.856-2.169 1.413-3.505 1.674-1.336 0.26-2.723 0.157-4.159-0.31zM23.601 95.379v0l1.723-3.057c1.058 0.508 1.919 1.228 2.582 2.158 0.666 0.924 1.082 1.954 1.251 3.089 0.175 1.137 0.066 2.307-0.324 3.511v0l-3.048-0.99c0.298-0.919 0.281-1.812-0.054-2.678-0.329-0.858-1.039-1.536-2.13-2.033z" fill="#3aafa9" data-fill-palette-color="primary"></path><path d="M25.888 60.292l1.969-3.114 17.303 10.944-1.969 3.113zM19.8 69.918l1.969-3.114 11.791 7.458-1.969 3.114zM31.591 77.376l1.969-3.114c0.955 0.604 1.928 0.796 2.919 0.578 0.989-0.228 1.779-0.807 2.368-1.739v0l2.281 2.542c-0.68 1.075-1.548 1.863-2.605 2.362-1.047 0.497-2.18 0.698-3.4 0.602-1.216-0.101-2.394-0.512-3.532-1.231zM37.576 67.684l0.867-1.372c1.162 0.735 2.056 1.631 2.684 2.688 0.631 1.051 0.951 2.163 0.958 3.335 0.013 1.176-0.306 2.278-0.957 3.308v0l-2.281-2.542c0.607-0.96 0.8-1.946 0.577-2.956-0.232-1.008-0.848-1.829-1.848-2.461z" fill="#3aafa9" data-fill-palette-color="primary"></path><path d="M59.098 52.937l-2.678 2.546-14.108-14.836 2.678-2.546zM49.66 43.012l-1.206 1.146c-0.952-1.001-1.64-2.055-2.064-3.163-0.42-1.113-0.554-2.168-0.404-3.165 0.15-0.997 0.578-1.831 1.283-2.502v0l2.133 2.718c-0.685 0.652-1.001 1.445-0.948 2.38 0.058 0.94 0.46 1.802 1.206 2.586zM50.602 33.947l1.215 3.098c-0.424 0.028-0.858 0.13-1.3 0.307-0.447 0.181-0.819 0.413-1.115 0.694v0l-2.133-2.718c0.454-0.431 0.972-0.77 1.555-1.014 0.588-0.24 1.181-0.363 1.778-0.367z" fill="#3aafa9" data-fill-palette-color="primary"></path><path d="M82.953 25.077l-11.907 7.033-1.339-2.267 11.907-7.033zM81.607 37.228l-0.175 0.104-1.63-2.76 0.176-0.104zM74.158 32.442l-3.173 1.873-3.031-5.132 3.172-1.873zM81.614 22.81l-3.181 1.879-1.069-1.81 3.181-1.879zM80.545 21v0l-3.181 1.879c-0.606-1.025-1.408-1.681-2.407-1.969-0.999-0.287-1.988-0.142-2.967 0.437v0l-1.609-2.724c1.254-0.741 2.521-1.13 3.803-1.168 1.282-0.038 2.485 0.247 3.61 0.855 1.131 0.604 2.048 1.501 2.751 2.69zM81.46 29.492v0l3.323-1.157c0.451 1.085 0.617 2.196 0.498 3.333-0.113 1.133-0.482 2.181-1.107 3.143-0.622 0.968-1.477 1.773-2.567 2.417v0l-1.629-2.76c0.838-0.495 1.415-1.176 1.733-2.042 0.321-0.861 0.237-1.839-0.251-2.934zM71.147 27.345l-3.172 1.874c-0.782-1.324-1.188-2.661-1.219-4.01-0.025-1.353 0.269-2.609 0.88-3.768 0.617-1.163 1.544-2.109 2.78-2.839v0l1.609 2.724c-1.025 0.606-1.618 1.434-1.779 2.486-0.167 1.055 0.133 2.233 0.901 3.533zM70.985 34.315v0l3.173-1.873c0.758 1.283 1.639 2.106 2.643 2.468 0.999 0.366 2.011 0.247 3.036-0.358v0l1.63 2.759c-1.236 0.73-2.514 1.082-3.834 1.055-1.31-0.024-2.555-0.379-3.735-1.065-1.174-0.69-2.145-1.685-2.913-2.986z" fill="#3aafa9" data-fill-palette-color="primary"></path><path d="M103.209 19.329l-3.538 1.029-1.687-5.801 3.537-1.029zM101.533 13.567l-3.538 1.029c-0.422-1.45-0.482-2.839-0.181-4.167 0.301-1.328 0.895-2.478 1.781-3.452 0.886-0.973 2.015-1.66 3.387-2.059v0l0.895 3.078c-1.137 0.331-1.919 0.98-2.346 1.947-0.421 0.966-0.42 2.174 0.002 3.624zM111.598 8.704l-3.112 1.618c-0.471-1.131-1.128-1.868-1.972-2.212-0.85-0.341-1.739-0.376-2.667-0.106v0l-0.895-3.077c1.215-0.354 2.387-0.429 3.516-0.226 1.131 0.21 2.146 0.655 3.046 1.336 0.906 0.679 1.601 1.568 2.084 2.667zM99.66 20.319v0l3.538-1.029c0.416 1.431 1.063 2.447 1.939 3.05 0.883 0.6 1.893 0.735 3.03 0.404v0l0.895 3.077c-1.372 0.399-2.694 0.422-3.965 0.07-1.27-0.346-2.388-0.999-3.355-1.958-0.966-0.959-1.66-2.164-2.082-3.614zM110.807 18.299v0l3.496-0.295c0.175 1.161 0.064 2.277-0.333 3.35-0.39 1.07-1.007 1.994-1.851 2.77-0.842 0.784-1.871 1.352-3.086 1.706v0l-0.895-3.077c0.928-0.27 1.656-0.786 2.185-1.55 0.524-0.755 0.686-1.723 0.484-2.904z" fill="#3aafa9" data-fill-palette-color="primary"></path><path d="M144.821 13.57l-3.683 0.121-0.196-5.957 3.683-0.121zM133.437 13.945l-3.682 0.121-0.197-5.957 3.683-0.122zM137.066 3.205l-0.245 0.008-0.105-3.203 0.244-0.008zM137.674 21.678l-0.245 0.008-0.105-3.203 0.245-0.008zM133.242 8.028l-3.682 0.122c-0.05-1.51 0.236-2.87 0.856-4.083 0.627-1.212 1.487-2.18 2.58-2.903 1.099-0.724 2.367-1.109 3.801-1.157v0l0.106 3.203c-1.19 0.039-2.108 0.474-2.755 1.306-0.653 0.832-0.955 2.002-0.906 3.512zM144.626 7.653v0l-3.683 0.122c-0.05-1.51-0.418-2.658-1.103-3.446-0.693-0.787-1.645-1.161-2.856-1.121v0l-0.105-3.203c1.428-0.047 2.714 0.254 3.859 0.904 1.145 0.65 2.066 1.559 2.765 2.727 0.699 1.168 1.073 2.507 1.123 4.017zM129.753 14.025v0l3.683-0.121c0.049 1.489 0.427 2.634 1.134 3.434 0.7 0.801 1.646 1.181 2.835 1.143v0l0.106 3.203c-1.435 0.047-2.725-0.257-3.87-0.915-1.138-0.65-2.06-1.559-2.765-2.727-0.699-1.162-1.073-2.501-1.123-4.017zM141.137 13.65l3.682-0.121c0.05 1.516-0.235 2.877-0.856 4.082-0.62 1.212-1.48 2.18-2.58 2.903-1.099 0.731-2.363 1.119-3.791 1.167v0l-0.105-3.203c1.21-0.04 2.135-0.482 2.775-1.327 0.633-0.845 0.924-2.011 0.875-3.501z" fill="#3aafa9" data-fill-palette-color="primary"></path><path d="M164.319 23.573l-3.606-0.803 4.452-19.984 3.606 0.804zM175.436 26.05l-3.606-0.804 3.032-13.607 3.606 0.803zM178.468 12.442l-3.606-0.803c0.247-1.109 0.106-2.088-0.423-2.939-0.527-0.856-1.332-1.405-2.414-1.646v0l1.618-2.996c1.215 0.271 2.237 0.816 3.066 1.635 0.828 0.819 1.401 1.818 1.717 2.996 0.323 1.18 0.337 2.431 0.042 3.753zM167.333 10.045l-1.584-0.353c0.3-1.348 0.845-2.495 1.634-3.442 0.796-0.945 1.736-1.614 2.821-2.006 1.084-0.393 2.231-0.455 3.439-0.186v0l-1.618 2.996c-1.136-0.253-2.139-0.1-3.009 0.459-0.869 0.552-1.43 1.396-1.683 2.532z" fill="#3aafa9" data-fill-palette-color="primary"></path><path d="M193.564 33.885l-3.272-1.715 9.502-18.134 3.273 1.714zM203.653 39.171l-3.273-1.714 6.471-12.349 3.273 1.715zM210.124 26.823l-3.273-1.715c0.527-1.006 0.646-1.989 0.358-2.947-0.286-0.964-0.92-1.704-1.903-2.218v0l2.343-2.471c1.103 0.578 1.948 1.37 2.534 2.376 0.587 1.006 0.879 2.12 0.877 3.34 0.004 1.224-0.308 2.435-0.936 3.635zM199.997 21.608l-1.437-0.753c0.641-1.223 1.466-2.189 2.474-2.897 1.015-0.705 2.097-1.106 3.246-1.203 1.149-0.097 2.272 0.142 3.369 0.717v0l-2.343 2.471c-1.031-0.54-2.039-0.654-3.025-0.341-0.983 0.307-1.744 0.976-2.284 2.006z" fill="#3aafa9" data-fill-palette-color="primary"></path><path d="M232.884 51.732l-10.162-9.38 1.786-1.935 10.162 9.38zM220.86 53.939l-0.15-0.139 2.173-2.354 0.15 0.138zM223.3 45.427l-2.707-2.499 4.043-4.38 2.707 2.5zM234.67 49.797l-2.715-2.506 1.426-1.545 2.715 2.506zM236.096 48.252v0l-2.715-2.506c0.808-0.875 1.205-1.832 1.192-2.871-0.013-1.04-0.436-1.945-1.271-2.716v0l2.146-2.324c1.07 0.988 1.807 2.09 2.212 3.306 0.405 1.216 0.478 2.451 0.221 3.703-0.253 1.257-0.848 2.393-1.785 3.408zM228.226 51.572v0l2.064 2.849c-0.909 0.744-1.925 1.223-3.048 1.437-1.118 0.218-2.228 0.166-3.329-0.156-1.106-0.317-2.123-0.905-3.053-1.763v0l2.173-2.355c0.715 0.66 1.533 1.017 2.456 1.072 0.917 0.06 1.83-0.302 2.737-1.084zM227.315 41.078l-2.707-2.5c1.043-1.13 2.206-1.903 3.49-2.32 1.288-0.413 2.576-0.493 3.861-0.241 1.291 0.257 2.464 0.872 3.519 1.845v0l-2.146 2.325c-0.875-0.808-1.839-1.137-2.892-0.989-1.058 0.143-2.1 0.77-3.125 1.88zM220.593 42.928v0l2.707 2.499c-1.011 1.095-1.545 2.176-1.604 3.242-0.063 1.062 0.342 1.997 1.217 2.804v0l-2.173 2.355c-1.055-0.974-1.759-2.096-2.114-3.368-0.354-1.262-0.372-2.556-0.054-3.883 0.323-1.323 0.996-2.539 2.021-3.649z" fill="#3aafa9" data-fill-palette-color="primary"></path><path d="M244.212 69.481l-2.003-3.092 5.071-3.285 2.003 3.092zM249.249 66.218l-2.003-3.092c1.268-0.821 2.581-1.279 3.938-1.372 1.358-0.093 2.631 0.144 3.818 0.712 1.187 0.569 2.169 1.452 2.946 2.652v0l-2.689 1.742c-0.644-0.994-1.49-1.556-2.54-1.686-1.046-0.125-2.203 0.223-3.47 1.044zM256.801 74.459l-2.444-2.515c0.948-0.776 1.465-1.618 1.55-2.525 0.082-0.912-0.14-1.774-0.665-2.584v0l2.69-1.743c0.688 1.062 1.097 2.163 1.227 3.303 0.125 1.143-0.01 2.244-0.402 3.301-0.39 1.063-1.041 1.984-1.956 2.763zM242.243 66.366v0l2.003 3.093c-1.251 0.81-2.038 1.722-2.362 2.734-0.321 1.019-0.16 2.025 0.484 3.019v0l-2.69 1.742c-0.777-1.199-1.179-2.459-1.207-3.778-0.034-1.316 0.27-2.574 0.91-3.776 0.64-1.201 1.595-2.213 2.862-3.034zM247.384 76.461v0l1.288 3.264c-1.062 0.501-2.163 0.716-3.304 0.644-1.137-0.066-2.199-0.391-3.186-0.976-0.993-0.581-1.833-1.403-2.521-2.464v0l2.69-1.743c0.525 0.811 1.23 1.36 2.113 1.647 0.874 0.285 1.847 0.161 2.92-0.372z" fill="#3aafa9" data-fill-palette-color="primary"></path><path d="M257.921 99.467l-1.22-3.488 21.157-7.397 1.181 3.501zM270.203 100.579l-3.679-10.521 2.871-1.004 3.679 10.521zM256.74 95.966v0l1.219 3.487c-0.745 0.26-1.335 0.582-1.771 0.965-0.438 0.377-0.724 0.805-0.859 1.285-0.137 0.473-0.112 0.98 0.077 1.519v0l-3.133 0.749c-0.624-1.786-0.547-3.388 0.234-4.806 0.78-1.419 2.191-2.485 4.233-3.199zM256.691 104.794v0l-2.004 2.247c-0.565-0.379-1.055-0.831-1.469-1.357-0.417-0.532-0.732-1.103-0.945-1.713v0l3.133-0.749c0.117 0.334 0.283 0.625 0.5 0.874 0.219 0.255 0.481 0.488 0.785 0.698z" fill="#3aafa9" data-fill-palette-color="primary"></path><path d="M14.438 179.614l-1.141-3.514 5.756-1.869 1.141 3.513zM20.156 177.757l-1.142-3.514c1.437-0.467 2.823-0.57 4.16-0.31 1.338 0.266 2.511 0.826 3.518 1.68 1 0.855 1.722 1.966 2.166 3.331v0l-3.048 0.99c-0.368-1.132-1.042-1.897-2.022-2.294-0.985-0.388-2.195-0.349-3.632 0.117zM25.343 187.683l-1.725-3.067c1.116-0.506 1.832-1.189 2.146-2.049 0.323-0.856 0.334-1.747 0.033-2.672v0l3.048-0.99c0.393 1.21 0.506 2.383 0.338 3.517-0.174 1.137-0.588 2.165-1.241 3.086-0.65 0.927-1.517 1.652-2.599 2.175zM13.336 176.088v0l1.141 3.514c-1.417 0.46-2.413 1.138-2.988 2.032-0.573 0.901-0.675 1.918-0.307 3.051v0l-3.058 0.994c-0.444-1.365-0.509-2.689-0.196-3.972 0.307-1.28 0.923-2.421 1.85-3.423 0.929-0.996 2.114-1.728 3.558-2.196zM15.707 187.186v0l0.405 3.495c-1.157 0.204-2.277 0.125-3.361-0.239-1.082-0.357-2.027-0.944-2.836-1.761-0.809-0.817-1.41-1.831-1.804-3.041v0l3.058-0.993c0.301 0.925 0.836 1.638 1.607 2.139 0.779 0.505 1.756 0.639 2.931 0.4z" fill="#3aafa9" data-fill-palette-color="primary"></path><path d="M43.217 208.747l1.976 3.123-17.328 10.961-1.975-3.122zM37.117 199.104l1.975 3.123-11.807 7.469-1.976-3.122zM25.309 206.574l1.976 3.122c-0.96 0.607-1.551 1.404-1.773 2.39-0.218 0.991-0.031 1.956 0.562 2.893v0l-3.288 0.969c-0.68-1.075-1.02-2.197-1.018-3.366-0.004-1.165 0.3-2.275 0.912-3.33 0.609-1.061 1.485-1.954 2.629-2.678zM31.513 216.151l0.868 1.372c-1.167 0.738-2.363 1.165-3.587 1.279-1.22 0.12-2.364-0.071-3.43-0.572-1.068-0.492-1.927-1.252-2.578-2.282v0l3.288-0.969c0.607 0.96 1.413 1.553 2.418 1.78 1.008 0.232 2.015 0.029 3.021-0.608z" fill="#3aafa9" data-fill-palette-color="primary"></path><path d="M44.988 241.892l-2.677-2.546 14.128-14.859 2.678 2.546zM54.44 231.952l-1.206-1.147c0.952-1.001 1.97-1.741 3.056-2.221 1.09-0.475 2.139-0.665 3.147-0.57 1.004 0.1 1.86 0.487 2.571 1.163v0l-2.614 2.275c-0.685-0.652-1.496-0.93-2.432-0.834-0.936 0.105-1.776 0.55-2.522 1.334zM63.555 232.437l-3.041 1.362c-0.044-0.418-0.17-0.843-0.378-1.276-0.204-0.438-0.451-0.795-0.742-1.071v0l2.614-2.275c0.449 0.427 0.81 0.93 1.085 1.51 0.274 0.571 0.429 1.154 0.462 1.75z" fill="#3aafa9" data-fill-palette-color="primary"></path><path d="M81.829 256.823l-11.916-7.039 1.339-2.267 11.916 7.039zM70.524 261.513l-0.176-0.104 1.635-2.768 0.176 0.104zM71.124 252.669l-3.181-1.879 3.037-5.14 3.181 1.879zM83.168 254.556l-3.181-1.879 1.074-1.819 3.181 1.878zM84.242 252.737v0l-3.181-1.879c0.606-1.025 0.792-2.049 0.558-3.073-0.231-1.014-0.836-1.809-1.814-2.387v0l1.609-2.724c1.26 0.744 2.215 1.668 2.867 2.772 0.648 1.11 0.978 2.304 0.989 3.583 0.017 1.282-0.326 2.518-1.028 3.708zM77.241 257.645v0l2.618 2.352c-0.732 0.919-1.622 1.602-2.67 2.051-1.053 0.445-2.153 0.629-3.301 0.551-1.148-0.077-2.269-0.439-3.364-1.086v0l1.635-2.768c0.838 0.495 1.711 0.675 2.62 0.54 0.919-0.137 1.739-0.684 2.462-1.639zM74.14 247.564l-3.181-1.879c0.782-1.324 1.759-2.323 2.932-2.998 1.167-0.678 2.41-1.03 3.73-1.056 1.316-0.021 2.592 0.334 3.828 1.064v0l-1.609 2.724c-1.025-0.606-2.037-0.725-3.035-0.359-1.008 0.369-1.896 1.203-2.665 2.504zM67.943 250.79v0l3.181 1.879c-0.758 1.283-1.053 2.452-0.886 3.507 0.161 1.051 0.755 1.88 1.78 2.486v0l-1.635 2.768c-1.236-0.73-2.161-1.679-2.775-2.848-0.617-1.163-0.907-2.424-0.869-3.786 0.031-1.364 0.433-2.7 1.204-4.006z" fill="#3aafa9" data-fill-palette-color="primary"></path><path d="M101.517 266.451l-3.547-1.032 1.69-5.811 3.548 1.032zM103.197 260.679l-3.548-1.032c0.422-1.45 1.116-2.655 2.082-3.614 0.973-0.957 2.095-1.612 3.367-1.965 1.27-0.346 2.594-0.319 3.973 0.082v0l-0.895 3.078c-1.143-0.333-2.155-0.205-3.034 0.382-0.875 0.596-1.523 1.619-1.945 3.069zM114.322 261.97l-3.507-0.297c0.21-1.207 0.047-2.183-0.487-2.927-0.526-0.748-1.257-1.258-2.191-1.53v0l0.895-3.077c1.222 0.355 2.255 0.922 3.098 1.699 0.842 0.783 1.46 1.704 1.854 2.76 0.401 1.059 0.513 2.183 0.338 3.372zM97.981 265.38v0l3.548 1.032c-0.416 1.431-0.416 2.635 0.001 3.614 0.423 0.981 1.207 1.637 2.35 1.97v0l-0.898 3.087c-1.379-0.401-2.51-1.091-3.394-2.072-0.886-0.973-1.483-2.125-1.791-3.454-0.301-1.328-0.24-2.72 0.184-4.177zM108.492 269.66v0l3.119 1.63c-0.482 1.072-1.178 1.953-2.088 2.645-0.903 0.694-1.921 1.146-3.051 1.355-1.131 0.21-2.307 0.137-3.529-0.219v0l0.898-3.087c0.934 0.272 1.825 0.23 2.672-0.126 0.856-0.36 1.516-1.093 1.979-2.198z" fill="#3aafa9" data-fill-palette-color="primary"></path><path d="M144.638 272.368l-3.692-0.122 0.196-5.967 3.693 0.121zM133.234 271.992l-3.692-0.122 0.196-5.967 3.693 0.122zM137.562 261.494l-0.244-0.008 0.105-3.203 0.245 0.008zM136.953 279.998l-0.245-0.008 0.106-3.213 0.245 0.008zM133.429 266.066l-3.692-0.122c0.05-1.51 0.427-2.849 1.133-4.017 0.699-1.168 1.621-2.081 2.765-2.737 1.145-0.65 2.434-0.951 3.87-0.904v0l-0.106 3.203c-1.19-0.039-2.135 0.335-2.835 1.122-0.707 0.794-1.085 1.945-1.135 3.455zM144.834 266.441v0l-3.693-0.121c0.05-1.51-0.245-2.683-0.885-3.522-0.633-0.831-1.558-1.266-2.775-1.306v0l0.105-3.203c1.435 0.047 2.702 0.433 3.802 1.156 1.099 0.731 1.959 1.702 2.579 2.914 0.627 1.212 0.916 2.573 0.867 4.082zM129.543 271.83v0l3.692 0.121c-0.049 1.489 0.253 2.657 0.906 3.502 0.646 0.845 1.564 1.287 2.755 1.326v0l-0.106 3.214c-1.435-0.047-2.702-0.436-3.801-1.167-1.099-0.724-1.959-1.692-2.58-2.904-0.627-1.212-0.916-2.576-0.866-4.092zM140.947 272.205l3.693 0.122c-0.05 1.516-0.428 2.859-1.134 4.027-0.699 1.168-1.621 2.077-2.765 2.727-1.145 0.657-2.435 0.961-3.87 0.914v0l0.106-3.213c1.217 0.04 2.169-0.34 2.856-1.141 0.694-0.801 1.065-1.946 1.114-3.436z" fill="#3aafa9" data-fill-palette-color="primary"></path><path d="M168.764 276.403l-3.607 0.802-4.456-20.013 3.606-0.803zM179.891 273.925l-3.606 0.803-3.034-13.628 3.606-0.803zM176.857 260.297l-3.606 0.803c-0.247-1.109-0.791-1.94-1.632-2.491-0.846-0.544-1.81-0.695-2.893-0.454v0l0.203-3.412c1.215-0.271 2.372-0.211 3.469 0.179 1.099 0.397 2.045 1.061 2.838 1.992 0.786 0.933 1.327 2.061 1.621 3.383zM165.747 262.854l-1.594 0.355c-0.3-1.348-0.29-2.619 0.029-3.813 0.32-1.193 0.887-2.201 1.701-3.023 0.815-0.816 1.83-1.359 3.045-1.63v0l-0.202 3.412c-1.136 0.253-1.98 0.814-2.532 1.682-0.551 0.875-0.7 1.881-0.447 3.017z" fill="#3aafa9" data-fill-palette-color="primary"></path><path d="M203.063 264.243l-3.272 1.715-9.515-18.163 3.272-1.714zM213.162 258.953l-3.273 1.715-6.479-12.368 3.273-1.714zM206.683 246.586l-3.273 1.714c-0.527-1.007-1.269-1.667-2.224-1.98-0.958-0.304-1.929-0.199-2.911 0.315v0l-0.694-3.347c1.103-0.578 2.235-0.821 3.397-0.731 1.164 0.097 2.251 0.492 3.259 1.185 1.002 0.696 1.818 1.644 2.446 2.844zM196.622 251.948l-1.446 0.758c-0.641-1.224-0.962-2.453-0.965-3.689-0.002-1.236 0.283-2.356 0.854-3.362 0.575-1 1.413-1.789 2.516-2.367v0l0.694 3.347c-1.031 0.54-1.699 1.301-2.007 2.284-0.304 0.989-0.186 1.998 0.354 3.029z" fill="#3aafa9" data-fill-palette-color="primary"></path><path d="M234.395 229.882l-10.17 9.386-1.786-1.934 10.17-9.387zM235.633 242.058l-0.15 0.139-2.18-2.363 0.15-0.138zM227.337 238.938l-2.715 2.506-4.05-4.387 2.715-2.506zM232.609 227.947l-2.715 2.506-1.433-1.553 2.715-2.505zM231.176 226.395v0l-2.715 2.505c-0.808-0.875-1.735-1.348-2.782-1.418-1.037-0.07-1.973 0.28-2.808 1.05v0l-2.146-2.325c1.075-0.992 2.235-1.642 3.48-1.948 1.25-0.301 2.488-0.274 3.716 0.084 1.233 0.353 2.318 1.037 3.255 2.052zM233.863 234.512v0l3.005-1.83c0.669 0.966 1.068 2.015 1.196 3.147 0.123 1.136-0.018 2.243-0.422 3.32-0.404 1.077-1.074 2.047-2.009 2.909v0l-2.18-2.362c0.715-0.66 1.139-1.445 1.271-2.354 0.133-0.919-0.154-1.862-0.861-2.83zM223.315 234.581l-2.715 2.506c-1.043-1.13-1.719-2.354-2.027-3.671-0.313-1.313-0.293-2.605 0.061-3.876 0.359-1.266 1.066-2.386 2.121-3.36v0l2.146 2.324c-0.875 0.808-1.281 1.742-1.217 2.805 0.063 1.071 0.607 2.162 1.631 3.272zM224.622 241.444v0l2.715-2.506c1.011 1.095 2.045 1.714 3.103 1.858 1.053 0.148 2.018-0.182 2.893-0.989v0l2.18 2.362c-1.055 0.974-2.23 1.586-3.526 1.838-1.291 0.256-2.583 0.171-3.875-0.257-1.298-0.423-2.461-1.192-3.49-2.306z" fill="#3aafa9" data-fill-palette-color="primary"></path><path d="M249.277 213.793l-2.009 3.101-5.079-3.291 2.009-3.101zM244.232 210.524l-2.009 3.101c-1.268-0.821-2.222-1.833-2.862-3.034-0.637-1.207-0.941-2.47-0.913-3.79 0.034-1.316 0.441-2.576 1.222-3.781v0l2.689 1.742c-0.647 0.999-0.816 2.005-0.507 3.016 0.319 1.009 1.112 1.925 2.38 2.746zM248.67 200.241l-1.294 3.272c-1.096-0.548-2.077-0.673-2.943-0.374-0.868 0.289-1.567 0.841-2.096 1.658v0l-2.689-1.743c0.692-1.068 1.531-1.894 2.518-2.479 0.993-0.581 2.052-0.908 3.177-0.981 1.129-0.079 2.238 0.137 3.327 0.647zM247.234 216.871v0l2.009-3.1c1.251 0.81 2.404 1.157 3.462 1.039 1.061-0.123 1.915-0.685 2.562-1.684v0l2.698 1.748c-0.781 1.205-1.767 2.09-2.96 2.654-1.187 0.569-2.462 0.809-3.823 0.721-1.358-0.094-2.674-0.553-3.948-1.378zM254.357 208.036v0l2.458-2.518c0.888 0.77 1.532 1.69 1.933 2.761 0.405 1.065 0.545 2.169 0.42 3.312-0.125 1.143-0.533 2.249-1.225 3.317v0l-2.698-1.748c0.529-0.817 0.745-1.682 0.648-2.596-0.099-0.923-0.611-1.766-1.536-2.528z" fill="#3aafa9" data-fill-palette-color="primary"></path><path d="M265.528 183.187l-1.22 3.487-21.184-7.41 1.258-3.474zM256.61 174.65l-3.687 10.54-2.88-1.008 3.686-10.539zM264.27 186.661v0l1.22-3.487c0.745 0.261 1.407 0.377 1.986 0.348 0.583-0.019 1.077-0.175 1.482-0.465 0.398-0.293 0.69-0.706 0.877-1.24v0l2.927 1.37c-0.625 1.785-1.684 2.99-3.178 3.614-1.494 0.624-3.265 0.577-5.314-0.14zM269.82 179.79v0l2.967-0.508c0.208 0.642 0.309 1.301 0.303 1.977-0.003 0.669-0.113 1.312-0.328 1.928v0l-2.927-1.37c0.117-0.334 0.172-0.668 0.166-1.001-0.015-0.329-0.075-0.671-0.181-1.026z" fill="#3aafa9" data-fill-palette-color="primary"></path><path d="M0.47 139.99c0-6.038 4.894-10.932 10.931-10.932 6.038 0 10.932 4.894 10.932 10.932 0 6.038-4.894 10.932-10.932 10.932-6.038 0-10.932-4.894-10.931-10.932z" fill="#3aafa9" data-fill-palette-color="primary"></path><path d="M257.667 139.99c0-6.038 4.894-10.932 10.932-10.932 6.038 0 10.932 4.894 10.931 10.932 0 6.038-4.894 10.932-10.931 10.932-6.038 0-10.932-4.894-10.932-10.932z" fill="#3aafa9" data-fill-palette-color="primary"></path></g><g id="text-1"></g></svg></g></svg></g></svg></g></svg></g><defs></defs></svg><rect width="280" height="280" fill="none" stroke="none" visibility="hidden"></rect></g></svg></g></svg>